<mxfile host="Electron" modified="2025-08-30T23:16:41.402Z" agent="Mozilla/5.0 (Macintosh; Intel Mac OS X 10_15_7) AppleWebKit/537.36 (KHTML, like Gecko) draw.io/22.1.2 Chrome/114.0.5735.289 Electron/25.9.4 Safari/537.36" etag="Ii6-0epM1nHLsvuG-I2x" version="22.1.2" type="device">
  <diagram name="quadratic1" id="Gging9WFji6IZGT-y0aU">
    <mxGraphModel dx="1026" dy="688" grid="1" gridSize="10" guides="1" tooltips="1" connect="1" arrows="1" fold="1" page="1" pageScale="1" pageWidth="827" pageHeight="1169" math="1" shadow="0">
      <root>
        <mxCell id="0" />
        <mxCell id="1" parent="0" />
        <mxCell id="cX7Pntlup78XtRAqP7eq-1" value="&lt;font style=&quot;font-size: 22px;&quot; face=&quot;Times New Roman&quot;&gt;`x^2`&lt;/font&gt;" style="whiteSpace=wrap;html=1;aspect=fixed;" vertex="1" parent="1">
          <mxGeometry x="200" y="200" width="240" height="240" as="geometry" />
        </mxCell>
        <mxCell id="cX7Pntlup78XtRAqP7eq-2" value="&lt;font style=&quot;font-size: 22px;&quot;&gt;`px`&lt;/font&gt;" style="rounded=0;whiteSpace=wrap;html=1;" vertex="1" parent="1">
          <mxGeometry x="440" y="200" width="160" height="240" as="geometry" />
        </mxCell>
        <mxCell id="cX7Pntlup78XtRAqP7eq-3" value="&lt;font style=&quot;font-size: 22px;&quot;&gt;`x`&lt;/font&gt;" style="text;html=1;strokeColor=none;fillColor=none;align=center;verticalAlign=middle;whiteSpace=wrap;rounded=0;" vertex="1" parent="1">
          <mxGeometry x="290" y="160" width="60" height="30" as="geometry" />
        </mxCell>
        <mxCell id="cX7Pntlup78XtRAqP7eq-4" value="&lt;font style=&quot;font-size: 22px;&quot;&gt;`p`&lt;/font&gt;" style="text;html=1;strokeColor=none;fillColor=none;align=center;verticalAlign=middle;whiteSpace=wrap;rounded=0;" vertex="1" parent="1">
          <mxGeometry x="490" y="160" width="60" height="30" as="geometry" />
        </mxCell>
        <mxCell id="cX7Pntlup78XtRAqP7eq-5" value="&lt;font style=&quot;font-size: 22px;&quot;&gt;`x`&lt;/font&gt;" style="text;html=1;strokeColor=none;fillColor=none;align=center;verticalAlign=middle;whiteSpace=wrap;rounded=0;" vertex="1" parent="1">
          <mxGeometry x="150" y="300" width="60" height="30" as="geometry" />
        </mxCell>
      </root>
    </mxGraphModel>
  </diagram>
</mxfile>
